<?xml version="1.0" standalone="no"?>
<svg xmlns="http://www.w3.org/2000/svg" viewBox="0 0 97.393 36" width="97.393" height="36"><g fill="#919aa1" color="#919aa1" transform="translate(0 4.291666666666666) scale(0.5833334)"><svg width="48.0" height="47.0" x="0.0" y="0.0" viewBox="0 0 48 47"><path fill="currentColor" fill-rule="evenodd" d="M32.083 0l-.46.265-2.644 1.527-13.062 7.542L3.854 30.228.267 36.442l-.267.46 2.117 1.222 13.925 8.042.123.07H48V27.57l-.071-.124L34.953 4.97 32.083 0zM25.04 5.292l6.654-3.841 6.547 11.34-13.2-7.5zm-7.67 4.43l6.604-3.814 15.317 8.703 6.725 11.65-28.647-16.54zm-.531.92l29.566 17.07-29.566 17.07v-34.14zM9.171 40.97l-.123-17.615 6.728-11.65v33.078L9.17 40.97zm-7.72-4.457l6.547-11.338.107 15.18-6.654-3.842zm45.487-7.88v7.627l-15.194 8.912H18.29l28.648-16.54zm0 8.858v7.681H33.842l13.096-7.681zM23.567 22.294l9.384 5.42-9.384 5.417V22.294zm1.06 1.84v7.156l6.198-3.577-6.198-3.578z"></path></svg></g><path fill="#343a40" fill-rule="nonzero" d="M11.98 0.14L13.75 0.14L13.75 16.94L12.05 16.94L12.05 14.11Q10.39 17.09 6.41 17.09L6.41 17.09Q3.41 17.09 1.70 15.29Q0 13.49 0 10.15L0 10.15L0 0.14L1.78 0.14L1.78 10.10Q1.78 12.77 3.08 14.14Q4.39 15.50 6.74 15.50L6.74 15.50Q9.22 15.50 10.60 14.05Q11.98 12.60 11.98 9.70L11.98 9.70L11.98 0.14ZM19.22 16.94L19.22 0.14L21.00 0.14L21.00 15.41L30.41 15.41L30.41 16.94L19.22 16.94ZM33.36 16.94L33.36 0.14L35.14 0.14L35.14 15.41L44.54 15.41L44.54 16.94L33.36 16.94ZM54.36 0Q57.62 0 59.51 1.91Q61.39 3.82 61.39 7.42L61.39 7.42L61.39 16.94L59.64 16.94L59.64 12L49.08 12L49.08 16.94L47.35 16.94L47.35 7.42Q47.35 3.82 49.24 1.91Q51.12 0 54.36 0L54.36 0ZM49.08 10.46L59.64 10.46L59.64 7.25Q59.64 4.44 58.25 3.01Q56.86 1.58 54.36 1.58L54.36 1.58Q51.86 1.58 50.47 3.01Q49.08 4.44 49.08 7.25L49.08 7.25L49.08 10.46Z" transform="translate(36, 9.457)"></path></svg>